<svg xmlns="http://www.w3.org/2000/svg" width="64.839" height="61.565" viewBox="0 0 64.839 61.565">
  <g id="Group_1175" data-name="Group 1175" transform="translate(-101.639 -71.463)">
    <path id="Path_2922" data-name="Path 2922" d="M124.715,129.518a12.153,12.153,0,0,1,0-17.617,12.9,12.9,0,0,1,9.264-3.615h2.556q2.608,0,2.608-2.427V82.05q0-2.83-2.555-2.831-2.5,0-2.5,2.831v9.956h-8.039V81.292a9.378,9.378,0,0,1,3.035-7.078,10.2,10.2,0,0,1,5.924-2.751H101.639v61.565h30.8A12.614,12.614,0,0,1,124.715,129.518Z" transform="translate(0 0)" fill="#87553b"/>
    <path id="Path_2923" data-name="Path 2923" d="M191.869,71.463a10.827,10.827,0,0,1,5.939,2.7A8.807,8.807,0,0,1,201,80.989v24.669a9.628,9.628,0,0,1-3.008,7.077,9.94,9.94,0,0,1-7.267,2.983H187.8a4.839,4.839,0,0,0-3.567,1.441,4.859,4.859,0,0,0,.027,6.925,4.922,4.922,0,0,0,3.594,1.441h2.875v7.5H220.3V71.463Zm7.8,53.808a3.733,3.733,0,0,1-2.662,1.062,3.642,3.642,0,0,1-2.636-1.062,3.406,3.406,0,0,1-1.091-2.528,3.314,3.314,0,0,1,1.118-2.477,3.668,3.668,0,0,1,2.608-1.061,3.781,3.781,0,0,1,2.662,1.036,3.289,3.289,0,0,1,1.118,2.5A3.369,3.369,0,0,1,199.672,125.271Z" transform="translate(-53.82 0)" fill="#5a5b5b"/>
  </g>
</svg>
